<svg width="16" height="16" viewBox="0 0 16 16" fill="none" xmlns="http://www.w3.org/2000/svg">
<path d="M12 7.6339C12.1231 7.81851 12.2462 8.00313 12.3077 8.31082H10.3385C10.3385 8.24928 10.3385 8.12621 10.4 8.00313C10.4615 7.88005 10.4615 7.81851 10.5846 7.69544C10.6462 7.57236 10.7692 7.51082 10.8923 7.44928C11.0154 7.38774 11.2 7.32621 11.3846 7.32621C11.6308 7.38774 11.8769 7.44928 12 7.6339ZM6.33846 7.20313C6.46154 7.08005 6.58462 6.89544 6.58462 6.64928C6.58462 6.52621 6.58462 6.40313 6.52308 6.28005C6.46154 6.21851 6.4 6.09544 6.33846 6.09544C6.27692 6.0339 6.15385 6.0339 6.03077 5.97236H4.43077V7.38774H5.78462C5.96923 7.38774 6.15385 7.32621 6.33846 7.20313ZM5.84615 8.24928H4.43077V9.91082H5.84615C5.96923 9.91082 6.09231 9.91082 6.21539 9.84928C6.33846 9.84928 6.46154 9.78774 6.52308 9.72621C6.58462 9.66467 6.70769 9.60313 6.76923 9.48005C6.83077 9.35697 6.83077 9.2339 6.83077 9.11082C6.83077 8.80313 6.76923 8.55697 6.58462 8.4339C6.4 8.31082 6.15385 8.24928 5.84615 8.24928ZM16 3.01851V12.9877C16 14.6493 14.6462 16.0031 12.9846 16.0031H3.01538C1.35385 16.0031 0 14.6493 0 12.9877V3.01851C0 1.35697 1.35385 0.00312805 3.01538 0.00312805H12.9846C14.6462 0.00312805 16 1.35697 16 3.01851ZM10.0923 5.91082H12.5538V5.29544H10.0923V5.91082ZM8.12308 9.2339C8.12308 8.86467 8.06154 8.55697 7.87692 8.24928C7.69231 8.00313 7.44615 7.81851 7.07692 7.69544C7.32308 7.57236 7.56923 7.38774 7.69231 7.20313C7.81538 7.01851 7.87692 6.77236 7.87692 6.46467C7.87692 6.00313 7.81539 5.97236 7.75385 5.72621C7.63077 5.54159 7.50769 5.35697 7.38462 5.29544C7.2 5.17236 7.01538 5.11082 6.76923 5.04928C6.46154 4.92621 6.21539 4.92621 5.90769 4.92621H3.07692V10.957H6.03077C6.27692 10.957 6.58462 10.8954 6.83077 10.8339C7.07692 10.7724 7.32308 10.6493 7.50769 10.5262C7.69231 10.4031 7.87692 10.2185 8 9.97236C8.06154 9.78774 8.12308 9.54159 8.12308 9.2339ZM10.3385 9.04928H13.4769C13.4769 8.68005 13.4769 8.37236 13.4154 8.06467C13.3538 7.75697 13.2308 7.44928 13.0462 7.26467C12.8615 7.01851 12.6154 6.8339 12.3692 6.71082C12.0615 6.58774 11.7538 6.46467 11.3846 6.46467C11.0769 6.46467 10.7692 6.52621 10.4615 6.64928C10.2154 6.77236 9.96923 6.95697 9.72308 7.14159C9.53846 7.32621 9.35385 7.57236 9.29231 7.88005C9.16923 8.18774 9.10769 8.49544 9.10769 8.80313C9.10769 9.26467 9.16923 9.48005 9.29231 9.72621C9.41539 10.0339 9.53846 10.2801 9.72308 10.4647C9.90769 10.6493 10.1538 10.8339 10.4 10.957C10.7077 11.0801 11.0154 11.1416 11.3231 11.1416C11.8154 11.1416 12.2462 11.0185 12.6154 10.7724C12.9846 10.5262 13.2308 10.157 13.4154 9.66467H12.3692C12.3077 9.78774 12.2462 9.91082 12.0615 10.0339C11.8769 10.157 11.6923 10.2185 11.4462 10.2185C11.1385 10.2185 10.8308 10.157 10.6462 9.97236C10.4615 9.72621 10.3385 9.41851 10.3385 9.04928Z" fill="black"/>
</svg>
