<svg width="18" height="18" viewBox="0 0 18 18" fill="none" xmlns="http://www.w3.org/2000/svg">
<path d="M9 0.00312805C7.8181 0.00312805 6.64778 0.241699 5.55585 0.705221C4.46392 1.16874 3.47177 1.84814 2.63604 2.70461C0.948212 4.43434 0 6.78036 0 9.22657C0 13.3033 2.583 16.7621 6.156 17.9888C6.606 18.0626 6.75 17.7767 6.75 17.5277V15.9689C4.257 16.5223 3.726 14.733 3.726 14.733C3.312 13.663 2.727 13.3771 2.727 13.3771C1.908 12.8053 2.79 12.8237 2.79 12.8237C3.69 12.8883 4.167 13.7737 4.167 13.7737C4.95 15.1757 6.273 14.7606 6.786 14.5393C6.867 13.9398 7.101 13.5339 7.353 13.3033C5.355 13.0727 3.258 12.2795 3.258 8.7654C3.258 7.7416 3.6 6.92071 4.185 6.26585C4.095 6.03526 3.78 5.07602 4.275 3.83086C4.275 3.83086 5.031 3.58182 6.75 4.77165C7.461 4.56873 8.235 4.46727 9 4.46727C9.765 4.46727 10.539 4.56873 11.25 4.77165C12.969 3.58182 13.725 3.83086 13.725 3.83086C14.22 5.07602 13.905 6.03526 13.815 6.26585C14.4 6.92071 14.742 7.7416 14.742 8.7654C14.742 12.2888 12.636 13.0635 10.629 13.2941C10.953 13.58 11.25 14.1427 11.25 15.0004V17.5277C11.25 17.7767 11.394 18.0719 11.853 17.9888C15.426 16.7529 18 13.3033 18 9.22657C18 8.01533 17.7672 6.81595 17.3149 5.69691C16.8626 4.57787 16.1997 3.56109 15.364 2.70461C14.5282 1.84814 13.5361 1.16874 12.4442 0.705221C11.3522 0.241699 10.1819 0.00312805 9 0.00312805Z" fill="black"/>
</svg>
