<svg width="16" height="16" viewBox="0 0 16 16" fill="none" xmlns="http://www.w3.org/2000/svg">
<path d="M14.2222 0.00312805C14.6937 0.00312805 15.1459 0.190429 15.4793 0.523827C15.8127 0.857225 16 1.30941 16 1.78091V14.2254C16 14.6968 15.8127 15.149 15.4793 15.4824C15.1459 15.8158 14.6937 16.0031 14.2222 16.0031H1.77778C1.30628 16.0031 0.854097 15.8158 0.520699 15.4824C0.187301 15.149 0 14.6968 0 14.2254V1.78091C0 1.30941 0.187301 0.857225 0.520699 0.523827C0.854097 0.190429 1.30628 0.00312805 1.77778 0.00312805H14.2222ZM13.7778 13.7809V9.06979C13.7778 8.30126 13.4725 7.5642 12.929 7.02076C12.3856 6.47732 11.6485 6.17202 10.88 6.17202C10.1244 6.17202 9.24444 6.63424 8.81778 7.32757V6.34091H6.33778V13.7809H8.81778V9.39868C8.81778 8.71424 9.36889 8.15424 10.0533 8.15424C10.3834 8.15424 10.6999 8.28535 10.9333 8.51873C11.1667 8.75211 11.2978 9.06864 11.2978 9.39868V13.7809H13.7778ZM3.44889 4.94535C3.84495 4.94535 4.22478 4.78802 4.50484 4.50796C4.78489 4.22791 4.94222 3.84807 4.94222 3.45202C4.94222 2.62535 4.27556 1.94979 3.44889 1.94979C3.05047 1.94979 2.66838 2.10806 2.38666 2.38979C2.10494 2.67151 1.94667 3.0536 1.94667 3.45202C1.94667 4.27868 2.62222 4.94535 3.44889 4.94535ZM4.68444 13.7809V6.34091H2.22222V13.7809H4.68444Z" fill="black"/>
</svg>
